<svg width="541" height="652" viewBox="0 0 541 652" fill="none" xmlns="http://www.w3.org/2000/svg">
<path d="M362.798 378.996C354.13 397.624 337.561 401.675 324.917 399.322C314.041 405.158 301.446 434.491 320.047 424.51C326.317 421.145 332.168 423.611 350.001 422.196C373.567 420.325 396.881 394.192 402.181 380.437C408.714 363.484 424.072 329.655 452.848 327.682L478.063 329.956C459.925 304.593 438.479 297.16 421.947 301.165C403.198 305.708 385.802 325.734 381.086 335.429C369.148 359.969 370.72 361.969 362.798 378.996Z" fill="#83B3BA"/>
<path d="M324.917 399.322L325.191 397.848L324.673 397.751L324.208 398.001L324.917 399.322ZM362.798 378.996L361.438 378.363L362.798 378.996ZM381.086 335.429L379.737 334.773L381.086 335.429ZM421.947 301.165L422.3 302.623L421.947 301.165ZM478.063 329.956L477.928 331.45C478.512 331.503 479.073 331.21 479.365 330.701C479.656 330.193 479.624 329.561 479.283 329.084L478.063 329.956ZM452.848 327.682L452.983 326.188L452.864 326.177L452.746 326.186L452.848 327.682ZM402.181 380.437L400.781 379.898L402.181 380.437ZM350.001 422.196L350.119 423.691L350.001 422.196ZM324.643 400.797C337.818 403.249 355.145 398.999 364.158 379.629L361.438 378.363C353.115 396.25 337.303 400.101 325.191 397.848L324.643 400.797ZM364.158 379.629C368.151 371.047 369.76 366.228 371.844 360.547C373.917 354.896 376.489 348.307 382.435 336.085L379.737 334.773C373.745 347.09 371.134 353.772 369.028 359.513C366.933 365.224 365.367 369.918 361.438 378.363L364.158 379.629ZM382.435 336.085C384.69 331.449 390.088 324.162 397.277 317.462C404.466 310.763 413.278 304.809 422.3 302.623L421.594 299.708C411.867 302.064 402.606 308.395 395.232 315.268C387.857 322.14 382.198 329.715 379.737 334.773L382.435 336.085ZM422.3 302.623C438.059 298.805 458.941 305.796 476.843 330.829L479.283 329.084C460.909 303.391 438.898 295.515 421.594 299.708L422.3 302.623ZM478.198 328.462L452.983 326.188L452.713 329.176L477.928 331.45L478.198 328.462ZM452.746 326.186C437.745 327.214 426.36 336.544 417.981 347.532C409.596 358.528 404.062 371.384 400.781 379.898L403.581 380.977C406.833 372.537 412.245 360.002 420.366 349.352C428.493 338.694 439.175 330.123 452.951 329.179L452.746 326.186ZM400.781 379.898C398.243 386.486 391.263 396.271 381.938 404.657C372.611 413.045 361.193 419.802 349.882 420.7L350.119 423.691C362.375 422.718 374.397 415.474 383.944 406.888C393.492 398.301 400.819 388.143 403.581 380.977L400.781 379.898ZM349.882 420.7C341.046 421.402 335.214 421.141 330.695 421.122C326.19 421.103 322.828 421.315 319.338 423.188L320.756 425.831C323.536 424.34 326.235 424.103 330.682 424.122C335.114 424.141 341.123 424.405 350.119 423.691L349.882 420.7ZM319.338 423.188C317.09 424.394 315.454 424.926 314.32 425.04C313.225 425.15 312.776 424.864 312.557 424.615C312.279 424.298 312.028 423.653 312.046 422.489C312.064 421.354 312.337 419.927 312.857 418.305C313.894 415.067 315.83 411.302 318.176 407.991C320.54 404.654 323.205 401.943 325.626 400.644L324.208 398.001C321.191 399.619 318.203 402.764 315.728 406.256C313.235 409.775 311.146 413.813 310 417.39C309.428 419.175 309.07 420.909 309.046 422.442C309.023 423.945 309.319 425.476 310.305 426.597C311.351 427.785 312.885 428.199 314.619 428.025C316.315 427.855 318.354 427.121 320.756 425.831L319.338 423.188Z" fill="#3F3D3D"/>
<path fill-rule="evenodd" clip-rule="evenodd" d="M243.481 449.361C248.399 448.642 252.969 452.046 253.688 456.965C256.614 476.982 283.965 524.987 379.366 522.455C384.335 522.323 388.469 526.244 388.601 531.213C388.733 536.182 384.812 540.317 379.843 540.449C277.412 543.167 240.402 490.529 235.877 459.568C235.158 454.65 238.562 450.08 243.481 449.361Z" fill="#FAC96A" stroke="#3F3D3D" stroke-width="3" stroke-linecap="round"/>
<path fill-rule="evenodd" clip-rule="evenodd" d="M361.452 519.903C365.418 527.554 370.14 537.814 358.718 541.285C355.087 546.524 358.496 554.316 366.276 554.336L366.218 554.952L368.871 561.369C332.503 561.064 342.694 598.043 361.535 603.185C368.288 605.028 387.649 605.844 398.297 594.696C413.289 572.912 409.098 536.251 408.056 531.735C407.964 531.337 407.872 530.922 407.778 530.494C406.667 525.444 405.133 518.477 397.273 514.75C391.65 512.085 380.984 511.66 373.863 513.888C367.666 506.735 360.251 514.702 361.452 519.903Z" fill="#D9D9D9"/>
<path d="M358.718 541.285L358.282 539.85L357.782 540.001L357.485 540.43L358.718 541.285ZM361.452 519.903L359.991 520.241L360.033 520.426L360.121 520.594L361.452 519.903ZM366.276 554.336L367.769 554.475L367.921 552.84L366.28 552.836L366.276 554.336ZM366.218 554.952L364.725 554.813L364.69 555.183L364.832 555.526L366.218 554.952ZM368.871 561.369L368.859 562.869L371.123 562.888L370.258 560.796L368.871 561.369ZM361.535 603.185L361.14 604.632L361.14 604.632L361.535 603.185ZM398.297 594.696L399.382 595.732L399.465 595.645L399.533 595.546L398.297 594.696ZM407.778 530.494L406.313 530.816L406.313 530.816L407.778 530.494ZM397.273 514.75L396.63 516.106L397.273 514.75ZM373.863 513.888L372.729 514.87L373.373 515.613L374.311 515.319L373.863 513.888ZM359.154 542.72C362.231 541.785 364.403 540.335 365.749 538.417C367.098 536.495 367.492 534.283 367.353 532.067C367.081 527.745 364.741 522.989 362.784 519.213L360.121 520.594C362.129 524.468 364.133 528.668 364.359 532.255C364.468 533.995 364.148 535.476 363.294 536.694C362.437 537.915 360.916 539.049 358.282 539.85L359.154 542.72ZM366.28 552.836C359.694 552.819 357.016 546.374 359.951 542.139L357.485 540.43C353.158 546.674 357.297 555.812 366.272 555.836L366.28 552.836ZM364.782 554.196L364.725 554.813L367.712 555.091L367.769 554.475L364.782 554.196ZM364.832 555.526L367.485 561.942L370.258 560.796L367.604 554.379L364.832 555.526ZM368.884 559.869C359.555 559.791 352.957 562.102 348.725 565.94C344.474 569.794 342.809 575.008 343.001 580.288C343.191 585.545 345.214 590.923 348.404 595.32C351.593 599.714 356.028 603.237 361.14 604.632L361.93 601.738C357.621 600.562 353.717 597.533 350.832 593.558C347.949 589.584 346.165 584.772 345.999 580.18C345.833 575.611 347.263 571.316 350.74 568.162C354.237 564.991 360.004 562.795 368.859 562.869L368.884 559.869ZM361.14 604.632C364.731 605.612 371.464 606.282 378.658 605.298C385.854 604.314 393.733 601.645 399.382 595.732L397.212 593.66C392.212 598.895 385.087 601.391 378.252 602.326C371.415 603.26 365.092 602.601 361.93 601.738L361.14 604.632ZM399.533 595.546C407.262 584.315 409.986 569.372 410.687 556.824C411.389 544.265 410.077 533.824 409.517 531.397L406.594 532.072C407.077 534.162 408.382 544.31 407.692 556.656C407.001 569.014 404.324 583.293 397.061 593.846L399.533 595.546ZM409.517 531.397C409.427 531.009 409.338 530.601 409.243 530.171L406.313 530.816C406.407 531.243 406.5 531.666 406.594 532.072L409.517 531.397ZM409.243 530.171C408.137 525.144 406.495 517.463 397.916 513.395L396.63 516.106C403.772 519.492 405.197 525.744 406.313 530.816L409.243 530.171ZM397.916 513.395C394.849 511.941 390.552 511.15 386.186 510.985C381.804 510.819 377.179 511.279 373.415 512.456L374.311 515.319C377.668 514.269 381.936 513.826 386.073 513.983C390.227 514.14 394.074 514.894 396.63 516.106L397.916 513.395ZM362.914 519.566C362.706 518.667 362.854 517.535 363.378 516.385C363.898 515.244 364.74 514.199 365.748 513.488C366.748 512.783 367.857 512.441 368.969 512.569C370.07 512.695 371.372 513.304 372.729 514.87L374.997 512.906C373.255 510.896 371.307 509.818 369.311 509.588C367.329 509.361 365.497 509.994 364.019 511.037C362.548 512.074 361.374 513.549 360.648 515.141C359.926 516.725 359.598 518.539 359.991 520.241L362.914 519.566Z" fill="#3F3D3D"/>
<path d="M360.993 552.864C368.115 556.424 374.315 546.501 375.225 542.73" stroke="#3F3D3D" stroke-width="3" stroke-linecap="round"/>
<path d="M369.409 561.27C370.131 561.236 374.455 562.939 377.533 565.25" stroke="#3F3D3D" stroke-width="3" stroke-linecap="round"/>
<path d="M376.714 527.769C376.699 528.597 377.359 529.281 378.187 529.296C379.015 529.311 379.699 528.651 379.714 527.823L376.714 527.769ZM372.826 515.058C373.018 515.213 373.408 515.712 373.903 516.671C374.368 517.574 374.848 518.729 375.278 520.011C376.146 522.6 376.755 525.53 376.714 527.769L379.714 527.823C379.763 525.111 379.048 521.817 378.122 519.057C377.655 517.665 377.119 516.363 376.569 515.296C376.048 514.286 375.423 513.301 374.716 512.728L372.826 515.058Z" fill="#3F3D3D"/>
<path fill-rule="evenodd" clip-rule="evenodd" d="M86.8044 241.784C91.7746 241.721 95.8549 245.698 95.9182 250.669C96.0778 263.218 102.035 291.368 119.812 309.936C130.539 321.141 145.225 327.282 159.454 330.578C173.612 333.858 186.521 334.143 193.027 334.219C197.997 334.277 201.98 338.353 201.922 343.323C201.864 348.294 197.788 352.276 192.817 352.218C186.004 352.138 171.509 351.847 155.392 348.114C139.346 344.396 120.886 337.086 106.81 322.384C84.9018 299.5 78.1163 266.361 77.9196 250.898C77.8564 245.927 81.8342 241.847 86.8044 241.784Z" fill="#FAC96A" stroke="#3F3D3D" stroke-width="3" stroke-linecap="round"/>
<path d="M112.414 272.132C115.7 269.434 114.893 262.617 111.992 261.564C133.904 251.937 130.517 221.022 114.918 220.454C118.091 199.222 94.2428 202.463 93.4901 218.638C92.4718 197.403 72.5336 204.054 70.6774 213.237C52.7242 202.758 49.1047 229.147 56.7014 238.222C55.5439 245.783 57.4537 256.389 64.2043 260.244C49.9394 278.916 99.3303 282.868 112.414 272.132Z" fill="white" stroke="#3F3D3D" stroke-width="3" stroke-linecap="round" stroke-linejoin="round"/>
<path d="M55.6412 236.667C59.3791 244.17 71.776 250.709 70.5659 214.721" stroke="#3F3D3D" stroke-width="3" stroke-linecap="round"/>
<path d="M90.5982 241.517C86.8715 249.089 70.1357 251.589 70.578 213.674M117.125 220.834C80.3694 212.786 76.6846 247.957 113.728 238.772" stroke="#3F3D3D" stroke-width="3" stroke-linecap="round"/>
<path d="M111.89 261.553C107.878 263.5 102.337 265.088 95.0459 265.003" stroke="#3F3D3D" stroke-width="3" stroke-linecap="round"/>
<path d="M64.0325 260.15C66.8103 262.207 72.6766 263.924 77.1201 264.47" stroke="#3F3D3D" stroke-width="3" stroke-linecap="round"/>
<path fill-rule="evenodd" clip-rule="evenodd" d="M323.253 431.073C326.901 434.449 327.122 440.143 323.746 443.791C312.346 456.112 282.718 504.264 265.597 591.281C264.638 596.158 259.906 599.334 255.029 598.375C250.152 597.415 246.976 592.684 247.936 587.807C265.445 498.811 296.115 447.15 310.535 431.567C313.91 427.918 319.605 427.697 323.253 431.073Z" fill="#FAC96A" stroke="#3F3D3D" stroke-width="3" stroke-linecap="round"/>
<path fill-rule="evenodd" clip-rule="evenodd" d="M278.442 591.826C282.747 604.986 280.578 629.767 272.912 631.197C262.961 636.012 186.593 641.517 183.162 623.122C174.171 574.915 216.316 575.511 233.004 592.606L238.333 586.779C232.766 578.481 240.531 570.392 248.244 573.569C251.744 582.8 267.655 579.946 271.475 576.558C281.582 574.673 285.831 586.386 278.442 591.826Z" fill="#D9D9D9"/>
<path d="M278.442 591.826L277.553 590.618L276.679 591.261L277.017 592.292L278.442 591.826ZM272.912 631.197L272.637 629.722L272.439 629.759L272.259 629.847L272.912 631.197ZM233.004 592.606L231.931 593.654L233.04 594.79L234.111 593.618L233.004 592.606ZM238.333 586.779L239.439 587.792L240.235 586.922L239.578 585.944L238.333 586.779ZM248.244 573.569L249.646 573.037L249.416 572.43L248.815 572.182L248.244 573.569ZM271.475 576.558L271.2 575.083L270.791 575.16L270.48 575.436L271.475 576.558ZM277.017 592.292C279.083 598.608 279.621 607.862 278.677 615.732C278.205 619.66 277.375 623.141 276.245 625.683C275.073 628.318 273.782 629.509 272.637 629.722L273.187 632.672C275.875 632.17 277.73 629.727 278.986 626.902C280.284 623.985 281.164 620.179 281.655 616.089C282.636 607.921 282.107 598.204 279.868 591.359L277.017 592.292ZM272.259 629.847C271.211 630.354 269.106 630.938 266.061 631.513C263.065 632.079 259.295 632.612 255.016 633.062C246.459 633.962 235.934 634.523 225.615 634.364C215.279 634.204 205.236 633.321 197.606 631.368C193.786 630.391 190.66 629.167 188.419 627.695C186.183 626.225 184.965 624.605 184.637 622.847L181.688 623.397C182.217 626.238 184.136 628.47 186.772 630.202C189.402 631.93 192.884 633.257 196.862 634.275C204.826 636.313 215.141 637.202 225.569 637.363C236.015 637.525 246.662 636.957 255.33 636.045C259.664 635.59 263.519 635.046 266.618 634.461C269.667 633.885 272.125 633.244 273.565 632.547L272.259 629.847ZM184.637 622.847C182.424 610.985 183.396 602.322 186.174 596.236C188.936 590.188 193.539 586.552 198.917 584.802C209.81 581.259 223.937 585.465 231.931 593.654L234.077 591.558C225.383 582.652 210.094 578.012 197.989 581.949C191.869 583.94 186.579 588.126 183.445 594.99C180.329 601.816 179.404 611.156 181.688 623.397L184.637 622.847ZM234.111 593.618L239.439 587.792L237.226 585.767L231.897 591.594L234.111 593.618ZM239.578 585.944C237.143 582.313 237.703 578.949 239.463 576.829C241.263 574.659 244.438 573.624 247.672 574.956L248.815 572.182C244.336 570.337 239.772 571.758 237.154 574.913C234.495 578.117 233.956 582.947 237.087 587.615L239.578 585.944ZM246.841 574.101C248.933 579.616 254.651 581.278 259.735 581.296C262.333 581.305 264.931 580.896 267.141 580.26C269.309 579.636 271.27 578.745 272.471 577.68L270.48 575.436C269.77 576.065 268.31 576.801 266.311 577.377C264.354 577.94 262.039 578.304 259.745 578.296C255.043 578.28 251.055 576.753 249.646 573.037L246.841 574.101ZM271.75 578.032C276.113 577.219 279.007 579.307 280.135 582.021C281.285 584.788 280.663 588.328 277.553 590.618L279.331 593.034C283.61 589.884 284.559 584.847 282.905 580.869C281.229 576.838 276.945 574.012 271.2 575.083L271.75 578.032Z" fill="#3F3D3D"/>
<path d="M262.226 593.866C265.07 594.451 273.507 593.653 278.124 592.015" stroke="#3F3D3D" stroke-width="3" stroke-linecap="round"/>
<path d="M231.624 591.254C233.035 592.602 235.885 596.066 235.994 599.138" stroke="#3F3D3D" stroke-width="3" stroke-linecap="round"/>
<path d="M237.361 585.165C239.369 588.473 244.773 591.557 247.797 591.975" stroke="#3F3D3D" stroke-width="3" stroke-linecap="round"/>
<path d="M187.002 431.708C178.474 409.721 203.021 338.359 206.216 312.116L334.195 316.129C340.701 345.393 347.896 405.231 346.581 419.231C344.938 436.732 330.035 462.919 297.923 471.949C282.465 476.296 262.388 477.323 233.789 471.277C215.34 467.377 195.531 453.695 187.002 431.708Z" fill="#83B3BA" stroke="#3F3D3D" stroke-width="3"/>
<path fill-rule="evenodd" clip-rule="evenodd" d="M342.501 379.586C345.116 358.647 337.278 335.866 323.629 317.281C320.61 313.17 321.417 307.443 325.43 304.489C329.444 301.535 335.146 302.474 338.165 306.585C353.844 327.935 363.899 355.425 360.547 382.266C357.123 409.688 339.911 434.744 304.453 450.82C299.911 452.88 294.491 450.801 292.348 446.177C290.205 441.552 292.15 436.134 296.692 434.075C327.345 420.177 339.959 399.944 342.501 379.586Z" fill="#FAC96A" stroke="#3F3D3D" stroke-width="3" stroke-linecap="round"/>
<path fill-rule="evenodd" clip-rule="evenodd" d="M293.418 420.668C295.447 418.34 300.495 418.028 303.411 420.134C307.209 422.878 317.566 435.192 312.861 452.799C310.681 460.955 307.261 461.212 303.668 461.481C303.343 461.506 303.017 461.53 302.69 461.561L302.608 461.199C298.86 471.908 291.646 484.816 279.342 476.465C274.735 477.812 263.153 480.634 258.495 468.753C247.659 463.93 245.639 446.258 257.823 439.897C246.496 423.801 271.581 411.547 280.561 413.784C284.943 414.583 289.585 417.318 293.605 421.493L293.418 420.668Z" fill="white"/>
<path d="M303.411 420.134L302.533 421.35L302.533 421.35L303.411 420.134ZM293.418 420.668L292.287 419.682L291.787 420.257L291.955 421L293.418 420.668ZM312.861 452.799L311.412 452.412L312.861 452.799ZM303.668 461.481L303.78 462.977L303.78 462.977L303.668 461.481ZM302.69 461.561L301.227 461.892L301.518 463.176L302.829 463.054L302.69 461.561ZM302.608 461.199L304.071 460.867L302.916 455.776L301.192 460.703L302.608 461.199ZM279.342 476.465L280.184 475.224L279.599 474.827L278.921 475.026L279.342 476.465ZM258.495 468.753L259.892 468.205L259.667 467.632L259.105 467.382L258.495 468.753ZM257.823 439.897L258.517 441.227L260.035 440.435L259.05 439.034L257.823 439.897ZM280.561 413.784L280.198 415.24L280.244 415.251L280.292 415.26L280.561 413.784ZM293.605 421.493L292.525 422.533L296.258 426.41L295.068 421.161L293.605 421.493ZM304.289 418.918C302.491 417.619 300.137 417.12 297.998 417.241C295.884 417.36 293.661 418.106 292.287 419.682L294.549 421.653C295.203 420.902 296.52 420.329 298.166 420.236C299.787 420.145 301.416 420.543 302.533 421.35L304.289 418.918ZM314.31 453.186C316.763 444.007 315.29 436.177 312.697 430.288C310.124 424.446 306.425 420.461 304.289 418.918L302.533 421.35C304.195 422.551 307.573 426.095 309.952 431.497C312.311 436.854 313.664 443.984 311.412 452.412L314.31 453.186ZM303.78 462.977C305.52 462.847 307.696 462.715 309.662 461.321C311.649 459.913 313.179 457.418 314.31 453.186L311.412 452.412C310.363 456.337 309.093 458.047 307.927 458.874C306.74 459.715 305.408 459.847 303.556 459.986L303.78 462.977ZM302.829 463.054C303.14 463.025 303.453 463.002 303.78 462.977L303.556 459.986C303.233 460.01 302.893 460.035 302.551 460.067L302.829 463.054ZM301.145 461.531L301.227 461.892L304.153 461.229L304.071 460.867L301.145 461.531ZM278.5 477.707C281.782 479.934 284.875 480.842 287.764 480.604C290.65 480.366 293.123 479.003 295.202 477.081C299.299 473.294 302.137 467.085 304.023 461.694L301.192 460.703C299.331 466.022 296.688 471.622 293.165 474.878C291.434 476.478 289.563 477.445 287.518 477.614C285.477 477.782 283.054 477.172 280.184 475.224L278.5 477.707ZM257.099 469.3C259.64 475.784 264.179 478.369 268.714 479.053C273.116 479.717 277.436 478.585 279.763 477.905L278.921 475.026C276.641 475.692 272.867 476.645 269.161 476.086C265.589 475.548 262.008 473.603 259.892 468.205L257.099 469.3ZM257.129 438.568C250.433 442.063 247.664 448.681 248.029 454.988C248.391 461.253 251.86 467.441 257.885 470.123L259.105 467.382C254.294 465.241 251.334 460.182 251.024 454.815C250.716 449.491 253.03 444.092 258.517 441.227L257.129 438.568ZM280.923 412.329C278.288 411.672 274.723 412.106 271.175 413.227C267.581 414.362 263.788 416.269 260.638 418.796C257.499 421.314 254.894 424.536 253.885 428.326C252.858 432.182 253.541 436.418 256.596 440.761L259.05 439.034C256.442 435.328 256.012 431.996 256.784 429.098C257.573 426.133 259.677 423.413 262.515 421.136C265.344 418.866 268.798 417.123 272.078 416.087C275.405 415.037 278.343 414.778 280.198 415.24L280.923 412.329ZM294.686 420.452C290.511 416.117 285.601 413.179 280.83 412.308L280.292 415.26C284.285 415.988 288.659 418.519 292.525 422.533L294.686 420.452ZM291.955 421L292.142 421.825L295.068 421.161L294.881 420.336L291.955 421Z" fill="#3F3D3D"/>
<path d="M258.289 469.048C261.766 468.832 266.831 470.544 272.855 466.784" stroke="#3F3D3D" stroke-width="3" stroke-linecap="round"/>
<path d="M276.307 477.248C279.253 476.663 282.714 475.866 286.149 471.651" stroke="#3F3D3D" stroke-width="3" stroke-linecap="round"/>
<path d="M257.468 440.286L265.335 441.503M268.216 437.365C265.562 439.691 263.489 441.89 267.804 446.79" stroke="#3F3D3D" stroke-width="3" stroke-linecap="round"/>
<path d="M293.436 420.743C296.617 424.831 301.658 433.555 302.166 440.018" stroke="#3F3D3D" stroke-width="3" stroke-linecap="round"/>
<path d="M303.202 460.817C303.541 458.354 304.048 452.683 303.36 449.701" stroke="#3F3D3D" stroke-width="3" stroke-linecap="round"/>
<path d="M415.838 73.3894C412.101 45.1177 359.624 84.5638 333.852 107.821C321.945 126.134 370.954 164.067 396.947 180.744C404.801 156.739 419.575 101.661 415.838 73.3894Z" fill="#83B3BA" stroke="#3F3D3D" stroke-width="3" stroke-linecap="round" stroke-linejoin="round"/>
<path d="M406.122 84.6444C403.253 62.936 362.958 93.2247 343.17 111.083C334.026 125.144 371.658 154.271 391.617 167.077C397.648 148.644 408.992 106.353 406.122 84.6444Z" fill="#F29A9A" stroke="#3F3D3D" stroke-width="3" stroke-linecap="round" stroke-linejoin="round"/>
<path d="M147.786 68.3702C152.115 40.183 203.754 80.7203 229.032 104.512C240.553 123.071 190.76 159.968 164.423 176.097C157.074 151.933 143.458 96.5574 147.786 68.3702Z" fill="#83B3BA" stroke="#3F3D3D" stroke-width="3" stroke-linecap="round" stroke-linejoin="round"/>
<path d="M155.447 78.1603C158.77 56.5168 198.421 87.6434 217.831 105.912C226.678 120.162 188.444 148.494 168.221 160.878C162.578 142.324 152.123 99.8039 155.447 78.1603Z" fill="#F29A9A" stroke="#3F3D3D" stroke-width="3" stroke-linecap="round" stroke-linejoin="round"/>
<path d="M298.849 325.682C360.867 317.655 463.755 273.953 388.326 155.938C387.243 154.245 373.462 136.184 372.093 134.787C361.277 123.741 357.946 121.682 339.751 110.775C301.312 90.7016 254.076 93.4458 224.547 105.426C206.775 112.637 192.211 125.509 176.778 142.222C167.464 152.308 158.976 168.529 155.457 178.206C114.949 289.591 211.793 331.517 298.849 325.682Z" fill="#83B3BA" stroke="#3F3D3D" stroke-width="3"/>
<path d="M261.986 218.176C267.862 222.815 278.876 228.684 295.181 218.592C295.217 218.57 295.252 218.547 295.288 218.525C295.369 218.812 295.446 219.098 295.519 219.381C304.921 255.717 253.574 263.865 261.986 218.176Z" fill="#3F3D3D"/>
<path d="M260.397 206.624C264.997 213.041 260.82 226.363 250.984 228.416M295.409 206.991C291.441 218.168 297.922 226.453 308.484 228.133M261.986 218.176C267.874 222.825 278.924 228.709 295.288 218.525C305.726 255.586 253.508 264.222 261.986 218.176Z" stroke="#3F3D3D" stroke-width="3" stroke-linecap="round" stroke-linejoin="round"/>
<path d="M279.063 235.356C272.923 226.619 266.395 231.236 266.339 236.594C266.825 249.683 289.566 249.735 291.384 236.856C292.191 231.133 284.138 226.687 279.063 235.356Z" fill="#F87F7F"/>
<path d="M285.991 202.001C281.52 199.843 274.857 200.538 271.733 201.851C268.159 204.702 272.555 207.047 275.741 208.36C279.988 210.11 281.922 208.799 283.612 208.442C286.525 207.676 290.463 204.158 285.991 202.001Z" fill="#3F3D3D" stroke="#3F3D3D" stroke-width="3"/>
<path d="M375.597 196.785C375.365 218.97 358.625 236.57 338.456 236.358C318.288 236.147 301.92 218.201 302.153 196.015C302.385 173.83 319.125 156.231 339.294 156.442C359.462 156.653 375.83 174.6 375.597 196.785Z" fill="white" stroke="#3F3D3D" stroke-width="3"/>
<mask id="path-40-inside-1_20_1198" fill="white">
<path d="M315.592 176.521C319.883 170.082 326.094 165.668 333.04 164.119C339.987 162.57 347.182 163.996 353.253 168.125C359.324 172.253 363.845 178.795 365.955 186.502C368.064 194.209 367.613 202.541 364.689 209.908C361.764 217.276 356.571 223.163 350.099 226.446C343.627 229.729 336.331 230.179 329.601 227.708C322.872 225.238 317.182 220.021 313.616 213.053C310.05 206.085 308.859 197.854 310.269 189.93L338.478 196.396L315.592 176.521Z"/>
</mask>
<path d="M315.592 176.521C319.883 170.082 326.094 165.668 333.04 164.119C339.987 162.57 347.182 163.996 353.253 168.125C359.324 172.253 363.845 178.795 365.955 186.502C368.064 194.209 367.613 202.541 364.689 209.908C361.764 217.276 356.571 223.163 350.099 226.446C343.627 229.729 336.331 230.179 329.601 227.708C322.872 225.238 317.182 220.021 313.616 213.053C310.05 206.085 308.859 197.854 310.269 189.93L338.478 196.396L315.592 176.521Z" fill="#3F3D3D" stroke="#3F3D3D" stroke-width="6" mask="url(#path-40-inside-1_20_1198)"/>
<path d="M302.956 202.466C317.273 207.641 351.777 215.038 375.26 203.224C364.766 246.833 316.143 250.092 302.956 202.466Z" fill="#D9D9D9" stroke="#3F3D3D" stroke-width="3" stroke-linecap="round" stroke-linejoin="round"/>
<path d="M252.905 193.562C252.673 215.747 235.933 233.347 215.764 233.135C195.596 232.924 179.228 214.978 179.461 192.792C179.693 170.607 196.433 153.007 216.602 153.219C236.77 153.43 253.138 171.376 252.905 193.562Z" fill="white" stroke="#3F3D3D" stroke-width="3"/>
<mask id="path-43-inside-2_20_1198" fill="white">
<path d="M193.744 173.307C198.051 166.869 204.287 162.454 211.26 160.906C218.234 159.357 225.457 160.784 231.552 164.912C237.646 169.041 242.186 175.583 244.304 183.29C246.422 190.997 245.97 199.329 243.034 206.696C240.098 214.064 234.885 219.951 228.388 223.234C221.891 226.516 214.566 226.965 207.81 224.495C201.055 222.024 195.342 216.807 191.762 209.839C188.182 202.871 186.986 194.64 188.401 186.716L216.72 193.183L193.744 173.307Z"/>
</mask>
<path d="M193.744 173.307C198.051 166.869 204.287 162.454 211.26 160.906C218.234 159.357 225.457 160.784 231.552 164.912C237.646 169.041 242.186 175.583 244.304 183.29C246.422 190.997 245.97 199.329 243.034 206.696C240.098 214.064 234.885 219.951 228.388 223.234C221.891 226.516 214.566 226.965 207.81 224.495C201.055 222.024 195.342 216.807 191.762 209.839C188.182 202.871 186.986 194.64 188.401 186.716L216.72 193.183L193.744 173.307Z" fill="#3F3D3D" stroke="#3F3D3D" stroke-width="6" mask="url(#path-43-inside-2_20_1198)"/>
<path d="M179.954 202.736C194.229 207.8 228.633 215.04 252.044 203.491C241.589 246.135 193.112 249.313 179.954 202.736Z" fill="#D9D9D9" stroke="#3F3D3D" stroke-width="3" stroke-linecap="round" stroke-linejoin="round"/>
</svg>
